<svg width="40" height="40" viewBox="0 0 40 40" fill="none" xmlns="http://www.w3.org/2000/svg">
<rect width="40" height="40" fill="white"/>
<path fill-rule="evenodd" clip-rule="evenodd" d="M34.4223 0.0944706C35.3815 0.348581 36.1482 1.02806 36.5465 1.99702L36.6853 2.33398L36.7034 9.51374C36.7156 15.7776 36.7092 16.794 36.6247 17.4912C36.0695 22.0824 33.4082 25.7935 28.9917 28.1159C26.9042 29.2151 24.0983 29.9477 21.5157 30.0659C17.6479 30.2493 14.0274 29.3566 10.9562 27.4657C9.11587 26.331 7.3596 24.6058 6.3339 22.9215C5.59162 21.6984 4.96418 20.1561 4.68662 18.8618L4.56592 18.3182H6.29774H8.02955L8.19865 18.8618C9.18819 22.1354 11.8495 24.7003 15.5301 25.9471C17.2438 26.5321 18.571 26.7332 20.5745 26.7332C22.5478 26.7271 23.8149 26.5321 25.5106 25.9648C29.5777 24.6058 32.3895 21.6333 33.1195 17.9343C33.3067 16.9946 33.3248 16.2974 33.3306 9.8507L33.3365 3.3095H23.2592H13.182V1.6545V0L23.633 0.00606228C32.624 0.00606228 34.1383 0.0176817 34.4223 0.0944706V0.0944706Z" fill="#252947"/>
<path fill-rule="evenodd" clip-rule="evenodd" d="M11.0702 1.6545V3.309H9.41065H7.75114V9.77947V16.2499H6.06185H4.37256V9.52536C4.37256 4.98118 4.39064 2.68256 4.43902 2.44613C4.65012 1.29379 5.68222 0.271792 6.84085 0.0586021C7.01525 0.0237439 8.04095 0 9.11503 0H11.0702V1.6545Z" fill="#6882A0"/>
<path d="M0 39.9085V33.215H2.38046C2.93315 33.215 3.38493 33.3098 3.73581 33.4994C4.08898 33.6868 4.35042 33.9406 4.52012 34.2609C4.68983 34.5812 4.77468 34.9385 4.77468 35.3329C4.77468 35.7273 4.68983 36.0857 4.52012 36.4082C4.35271 36.7307 4.09357 36.9878 3.74269 37.1795C3.39181 37.3691 2.94232 37.4638 2.39422 37.4638H0.687994V36.7448H2.3667C2.7451 36.7448 3.04896 36.6827 3.27829 36.5585C3.50763 36.4343 3.67389 36.2666 3.77709 36.0552C3.88258 35.8417 3.93533 35.6009 3.93533 35.3329C3.93533 35.0649 3.88258 34.8252 3.77709 34.6139C3.67389 34.4025 3.50648 34.2369 3.27485 34.1171C3.04323 33.9951 2.73593 33.9341 2.35294 33.9341H0.853113V39.9085H0Z" fill="black"/>
<path d="M12.0932 36.5618C12.0932 37.2677 11.9591 37.8778 11.6907 38.392C11.4224 38.9063 11.0544 39.3028 10.5865 39.5817C10.1187 39.8606 9.58434 40.0001 8.98349 40.0001C8.38264 40.0001 7.8483 39.8606 7.38046 39.5817C6.91262 39.3028 6.54455 38.9063 6.27623 38.392C6.00791 37.8778 5.87375 37.2677 5.87375 36.5618C5.87375 35.8558 6.00791 35.2458 6.27623 34.7315C6.54455 34.2173 6.91262 33.8208 7.38046 33.5419C7.8483 33.263 8.38264 33.1235 8.98349 33.1235C9.58434 33.1235 10.1187 33.263 10.5865 33.5419C11.0544 33.8208 11.4224 34.2173 11.6907 34.7315C11.9591 35.2458 12.0932 35.8558 12.0932 36.5618ZM11.2676 36.5618C11.2676 35.9822 11.1656 35.4931 10.9615 35.0943C10.7597 34.6956 10.4856 34.3938 10.1393 34.189C9.79532 33.9842 9.41004 33.8818 8.98349 33.8818C8.55693 33.8818 8.17051 33.9842 7.82422 34.189C7.48022 34.3938 7.20617 34.6956 7.00206 35.0943C6.80025 35.4931 6.69935 35.9822 6.69935 36.5618C6.69935 37.1414 6.80025 37.6305 7.00206 38.0293C7.20617 38.428 7.48022 38.7298 7.82422 38.9346C8.17051 39.1394 8.55693 39.2418 8.98349 39.2418C9.41004 39.2418 9.79532 39.1394 10.1393 38.9346C10.4856 38.7298 10.7597 38.428 10.9615 38.0293C11.1656 37.6305 11.2676 37.1414 11.2676 36.5618Z" fill="black"/>
<path d="M19.1968 35.3068H18.3437C18.2932 35.0736 18.2049 34.8688 18.0788 34.6923C17.9549 34.5158 17.8036 34.3677 17.6247 34.2478C17.4481 34.1258 17.252 34.0343 17.0365 33.9733C16.8209 33.9123 16.5961 33.8818 16.3622 33.8818C15.9357 33.8818 15.5492 33.9842 15.203 34.189C14.859 34.3938 14.5849 34.6956 14.3808 35.0943C14.179 35.4931 14.0781 35.9822 14.0781 36.5618C14.0781 37.1414 14.179 37.6305 14.3808 38.0293C14.5849 38.428 14.859 38.7298 15.203 38.9346C15.5492 39.1394 15.9357 39.2418 16.3622 39.2418C16.5961 39.2418 16.8209 39.2113 17.0365 39.1503C17.252 39.0893 17.4481 38.9989 17.6247 38.879C17.8036 38.757 17.9549 38.6078 18.0788 38.4313C18.2049 38.2526 18.2932 38.0478 18.3437 37.8168H19.1968C19.1326 38.1589 19.0156 38.465 18.8459 38.7352C18.6762 39.0054 18.4652 39.2353 18.2129 39.4248C17.9607 39.6122 17.6774 39.7549 17.3633 39.853C17.0514 39.951 16.7177 40.0001 16.3622 40.0001C15.7614 40.0001 15.227 39.8606 14.7592 39.5817C14.2914 39.3028 13.9233 38.9063 13.655 38.392C13.3867 37.8778 13.2525 37.2677 13.2525 36.5618C13.2525 35.8558 13.3867 35.2458 13.655 34.7315C13.9233 34.2173 14.2914 33.8208 14.7592 33.5419C15.227 33.263 15.7614 33.1235 16.3622 33.1235C16.7177 33.1235 17.0514 33.1726 17.3633 33.2706C17.6774 33.3687 17.9607 33.5125 18.2129 33.702C18.4652 33.8894 18.6762 34.1182 18.8459 34.3884C19.0156 34.6564 19.1326 34.9625 19.1968 35.3068Z" fill="black"/>
<path d="M20.5753 39.9085V33.215H21.4284V36.5356H21.511L24.6758 33.215H25.7903L22.832 36.235L25.7903 39.9085H24.7583L22.3091 36.7971L21.4284 37.7384V39.9085H20.5753Z" fill="black"/>
<path d="M26.8946 39.9085V33.215H31.1464V33.9341H27.7477V36.1957H30.9262V36.9148H27.7477V39.1895H31.2014V39.9085H26.8946Z" fill="black"/>
<path d="M32.2988 33.9341V33.215H37.5826V33.9341H35.3672V39.9085H34.5141V33.9341H32.2988Z" fill="black"/>
<path d="M39.3808 39.9608C39.2111 39.9608 39.0655 39.9031 38.9439 39.7876C38.8224 39.6721 38.7616 39.5338 38.7616 39.3725C38.7616 39.2113 38.8224 39.0729 38.9439 38.9575C39.0655 38.842 39.2111 38.7842 39.3808 38.7842C39.5505 38.7842 39.6961 38.842 39.8177 38.9575C39.9392 39.0729 40 39.2113 40 39.3725C40 39.4793 39.9713 39.5774 39.914 39.6667C39.859 39.756 39.7844 39.8279 39.6904 39.8824C39.5987 39.9347 39.4955 39.9608 39.3808 39.9608Z" fill="black"/>
</svg>
