<svg width="406" height="225" viewBox="0 0 406 225" fill="none" xmlns="http://www.w3.org/2000/svg">
<line x1="169.5" y1="5" x2="169.5" y2="200" stroke="#F5F5F5"/>
<rect x="21.5" y="4.5" width="378" height="192" stroke="#F5F5F5"/>
<line x1="21" y1="82.5" x2="400" y2="82.5" stroke="#F5F5F5"/>
<line x1="21" y1="43.5" x2="400" y2="43.5" stroke="#F5F5F5"/>
<line x1="21" y1="121.5" x2="400" y2="121.5" stroke="#F5F5F5"/>
<line x1="21" y1="160.5" x2="400" y2="160.5" stroke="#F5F5F5"/>
<path d="M25.992 211.54V217.828C25.992 218.524 25.792 219.076 25.392 219.484C25 219.884 24.448 220.084 23.736 220.084C22.968 220.084 22.364 219.86 21.924 219.412C21.492 218.956 21.276 218.32 21.276 217.504H22.368C22.368 217.992 22.476 218.38 22.692 218.668C22.908 218.948 23.24 219.088 23.688 219.088C24.112 219.088 24.42 218.968 24.612 218.728C24.804 218.488 24.9 218.188 24.9 217.828V211.54H25.992ZM30.3885 213.328C31.0285 213.328 31.5685 213.488 32.0085 213.808C32.4565 214.128 32.7685 214.556 32.9445 215.092V213.412H34.0365V220H32.9445V218.32C32.7685 218.856 32.4565 219.284 32.0085 219.604C31.5685 219.924 31.0285 220.084 30.3885 220.084C29.8045 220.084 29.2845 219.948 28.8285 219.676C28.3725 219.404 28.0125 219.016 27.7485 218.512C27.4925 218 27.3645 217.4 27.3645 216.712C27.3645 216.024 27.4925 215.424 27.7485 214.912C28.0125 214.4 28.3725 214.008 28.8285 213.736C29.2845 213.464 29.8045 213.328 30.3885 213.328ZM30.7005 214.3C30.0285 214.3 29.4885 214.516 29.0805 214.948C28.6805 215.372 28.4805 215.96 28.4805 216.712C28.4805 217.464 28.6805 218.056 29.0805 218.488C29.4885 218.912 30.0285 219.124 30.7005 219.124C31.1325 219.124 31.5165 219.024 31.8525 218.824C32.1965 218.624 32.4645 218.344 32.6565 217.984C32.8485 217.616 32.9445 217.192 32.9445 216.712C32.9445 216.232 32.8485 215.808 32.6565 215.44C32.4645 215.072 32.1965 214.792 31.8525 214.6C31.5165 214.4 31.1325 214.3 30.7005 214.3ZM39.2424 213.304C40.0104 213.304 40.6304 213.552 41.1024 214.048C41.5744 214.536 41.8104 215.244 41.8104 216.172V220H40.7184V216.268C40.7184 215.612 40.5504 215.108 40.2144 214.756C39.8784 214.404 39.4224 214.228 38.8464 214.228C38.2464 214.228 37.7664 214.424 37.4064 214.816C37.0464 215.2 36.8664 215.764 36.8664 216.508V220H35.7744V213.412H36.8664V214.972C37.0344 214.436 37.3304 214.024 37.7544 213.736C38.1864 213.448 38.6824 213.304 39.2424 213.304Z" fill="#828383"/>
<path d="M3.684 196.716C3.684 198.076 3.908 199.136 4.356 199.896C4.804 200.656 5.58 201.036 6.684 201.036C7.788 201.036 8.564 200.656 9.012 199.896C9.468 199.136 9.696 198.076 9.696 196.716C9.696 195.372 9.468 194.32 9.012 193.56C8.564 192.8 7.788 192.42 6.684 192.42C5.58 192.42 4.804 192.8 4.356 193.56C3.908 194.312 3.684 195.364 3.684 196.716ZM8.616 196.716C8.616 197.412 8.564 197.996 8.46 198.468C8.364 198.932 8.176 199.304 7.896 199.584C7.616 199.864 7.212 200.004 6.684 200.004C6.164 200.004 5.764 199.864 5.484 199.584C5.204 199.304 5.012 198.932 4.908 198.468C4.812 197.996 4.764 197.412 4.764 196.716C4.764 196.028 4.812 195.452 4.908 194.988C5.012 194.524 5.204 194.156 5.484 193.884C5.764 193.604 6.164 193.464 6.684 193.464C7.212 193.464 7.616 193.604 7.896 193.884C8.176 194.156 8.364 194.524 8.46 194.988C8.564 195.452 8.616 196.028 8.616 196.716Z" fill="#828383"/>
<path d="M4.69541 167.16C6.05541 166.248 7.14341 165.344 7.95941 164.448C8.77541 163.544 9.18341 162.704 9.18341 161.928C9.18341 161.448 9.05941 161.064 8.81141 160.776C8.57141 160.48 8.17941 160.332 7.63541 160.332C7.07541 160.332 6.65141 160.512 6.36341 160.872C6.07541 161.224 5.91541 161.712 5.88341 162.336H4.80341C4.85941 161.392 5.15141 160.668 5.67941 160.164C6.20741 159.652 6.88741 159.396 7.71941 159.396C8.51141 159.396 9.13941 159.608 9.60341 160.032C10.0674 160.456 10.2994 161.056 10.2994 161.832C10.2994 162.472 10.0914 163.124 9.67541 163.788C9.26741 164.444 8.75141 165.056 8.12741 165.624C7.51141 166.184 6.87541 166.66 6.21941 167.052H10.5154V167.952H4.69541V167.16Z" fill="#828383"/>
<path d="M3.93059 128.056V127.144L8.27459 121.48H9.45059V127.108H10.6986V128.056H9.45059V130H8.34659V128.056H3.93059ZM8.41859 122.812L5.08259 127.108H8.41859V122.812Z" fill="#828383"/>
<path d="M9.00688 84.796C8.94288 84.292 8.77088 83.904 8.49088 83.632C8.21888 83.352 7.83888 83.212 7.35088 83.212C6.67088 83.212 6.15488 83.476 5.80288 84.004C5.45888 84.532 5.28688 85.368 5.28688 86.512L5.29888 86.956C5.41888 86.476 5.69488 86.096 6.12688 85.816C6.55888 85.528 7.06688 85.384 7.65088 85.384C8.49088 85.384 9.14688 85.636 9.61888 86.14C10.0989 86.644 10.3389 87.348 10.3389 88.252C10.3389 88.78 10.2349 89.26 10.0269 89.692C9.81888 90.116 9.49888 90.456 9.06688 90.712C8.64288 90.96 8.11488 91.084 7.48288 91.084C6.27488 91.084 5.44288 90.704 4.98688 89.944C4.53888 89.184 4.31488 88.152 4.31488 86.848C4.31488 85.344 4.55488 84.216 5.03488 83.464C5.52288 82.704 6.31488 82.324 7.41088 82.324C8.21888 82.324 8.83888 82.552 9.27088 83.008C9.71088 83.464 9.97088 84.06 10.0509 84.796H9.00688ZM5.41888 88.072C5.41888 88.656 5.58688 89.148 5.92288 89.548C6.26688 89.94 6.77888 90.136 7.45888 90.136C8.01888 90.136 8.46688 89.972 8.80288 89.644C9.13888 89.308 9.30688 88.84 9.30688 88.24C9.30688 87.592 9.13888 87.1 8.80288 86.764C8.46688 86.42 8.00288 86.248 7.41088 86.248C7.07488 86.248 6.75488 86.316 6.45088 86.452C6.14688 86.588 5.89888 86.796 5.70688 87.076C5.51488 87.348 5.41888 87.68 5.41888 88.072Z" fill="#828383"/>
<path d="M4.352 45.532C4.352 45.116 4.464 44.736 4.688 44.392C4.912 44.048 5.244 43.776 5.684 43.576C6.124 43.376 6.648 43.276 7.256 43.276C7.864 43.276 8.384 43.376 8.816 43.576C9.256 43.776 9.588 44.048 9.812 44.392C10.036 44.736 10.148 45.116 10.148 45.532C10.148 46.004 10.02 46.412 9.764 46.756C9.508 47.1 9.12 47.344 8.6 47.488C9.16 47.64 9.596 47.904 9.908 48.28C10.22 48.656 10.376 49.12 10.376 49.672C10.376 50.472 10.092 51.1 9.524 51.556C8.956 52.012 8.2 52.24 7.256 52.24C6.312 52.24 5.556 52.012 4.988 51.556C4.42 51.1 4.136 50.472 4.136 49.672C4.136 49.12 4.288 48.656 4.592 48.28C4.904 47.904 5.34 47.64 5.9 47.488C5.38 47.344 4.992 47.1 4.736 46.756C4.48 46.412 4.352 46.004 4.352 45.532ZM5.432 45.688C5.432 46.168 5.596 46.54 5.924 46.804C6.252 47.06 6.696 47.188 7.256 47.188C7.816 47.188 8.256 47.06 8.576 46.804C8.904 46.54 9.068 46.168 9.068 45.688C9.068 45.208 8.904 44.84 8.576 44.584C8.248 44.32 7.808 44.188 7.256 44.188C6.704 44.188 6.26 44.32 5.924 44.584C5.596 44.84 5.432 45.208 5.432 45.688ZM5.204 49.612C5.204 50.156 5.388 50.58 5.756 50.884C6.124 51.18 6.624 51.328 7.256 51.328C7.88 51.328 8.376 51.176 8.744 50.872C9.112 50.568 9.296 50.148 9.296 49.612C9.296 49.068 9.104 48.656 8.72 48.376C8.336 48.096 7.848 47.956 7.256 47.956C6.656 47.956 6.164 48.096 5.78 48.376C5.396 48.656 5.204 49.068 5.204 49.612Z" fill="#828383"/>
<path d="M0.339594 5.56V4.54H2.76359V13H1.61159V5.56H0.339594ZM4.31291 8.716C4.31291 10.076 4.53691 11.136 4.98491 11.896C5.43291 12.656 6.20891 13.036 7.31291 13.036C8.41691 13.036 9.19291 12.656 9.64091 11.896C10.0969 11.136 10.3249 10.076 10.3249 8.716C10.3249 7.372 10.0969 6.32 9.64091 5.56C9.19291 4.8 8.41691 4.42 7.31291 4.42C6.20891 4.42 5.43291 4.8 4.98491 5.56C4.53691 6.312 4.31291 7.364 4.31291 8.716ZM9.24491 8.716C9.24491 9.412 9.19291 9.996 9.08891 10.468C8.99291 10.932 8.80491 11.304 8.52491 11.584C8.24491 11.864 7.84091 12.004 7.31291 12.004C6.79291 12.004 6.39291 11.864 6.11291 11.584C5.83291 11.304 5.64091 10.932 5.53691 10.468C5.44091 9.996 5.39291 9.412 5.39291 8.716C5.39291 8.028 5.44091 7.452 5.53691 6.988C5.64091 6.524 5.83291 6.156 6.11291 5.884C6.39291 5.604 6.79291 5.464 7.31291 5.464C7.84091 5.464 8.24491 5.604 8.52491 5.884C8.80491 6.156 8.99291 6.524 9.08891 6.988C9.19291 7.452 9.24491 8.028 9.24491 8.716Z" fill="#828383"/>
<path d="M91.664 211.54V212.428H87.968V215.356H91.1V216.208H87.968V220H86.876V211.54H91.664ZM99.018 216.34C99.018 216.572 99.002 216.772 98.97 216.94H93.702C93.726 217.692 93.938 218.256 94.338 218.632C94.746 219.008 95.242 219.196 95.826 219.196C96.354 219.196 96.794 219.064 97.146 218.8C97.506 218.528 97.726 218.168 97.806 217.72H98.97C98.89 218.176 98.71 218.584 98.43 218.944C98.158 219.304 97.802 219.584 97.362 219.784C96.922 219.984 96.426 220.084 95.874 220.084C95.242 220.084 94.682 219.948 94.194 219.676C93.706 219.404 93.322 219.016 93.042 218.512C92.77 218 92.634 217.4 92.634 216.712C92.634 216.024 92.77 215.424 93.042 214.912C93.322 214.4 93.706 214.008 94.194 213.736C94.682 213.464 95.242 213.328 95.874 213.328C96.514 213.328 97.07 213.464 97.542 213.736C98.022 214.008 98.386 214.372 98.634 214.828C98.89 215.284 99.018 215.788 99.018 216.34ZM97.914 216.412C97.938 215.924 97.858 215.516 97.674 215.188C97.49 214.86 97.238 214.616 96.918 214.456C96.598 214.296 96.25 214.216 95.874 214.216C95.274 214.216 94.77 214.404 94.362 214.78C93.954 215.148 93.734 215.692 93.702 216.412H97.914ZM104.082 213.328C104.666 213.328 105.186 213.464 105.642 213.736C106.098 214.008 106.454 214.4 106.71 214.912C106.974 215.424 107.106 216.024 107.106 216.712C107.106 217.4 106.974 218 106.71 218.512C106.454 219.016 106.098 219.404 105.642 219.676C105.186 219.948 104.666 220.084 104.082 220.084C103.442 220.084 102.898 219.924 102.45 219.604C102.01 219.276 101.706 218.848 101.538 218.32V220H100.446V211.12H101.538V215.092C101.706 214.564 102.01 214.14 102.45 213.82C102.898 213.492 103.442 213.328 104.082 213.328ZM103.77 214.3C103.346 214.3 102.962 214.4 102.618 214.6C102.274 214.792 102.006 215.072 101.814 215.44C101.622 215.808 101.526 216.232 101.526 216.712C101.526 217.192 101.622 217.616 101.814 217.984C102.006 218.344 102.274 218.624 102.618 218.824C102.962 219.024 103.346 219.124 103.77 219.124C104.45 219.124 104.99 218.912 105.39 218.488C105.798 218.056 106.002 217.464 106.002 216.712C106.002 215.96 105.798 215.372 105.39 214.948C104.99 214.516 104.45 214.3 103.77 214.3Z" fill="#828383"/>
<path d="M160.348 211.684V220H159.256V213.364L156.604 220H155.632L152.968 213.388V220H151.876V211.684H153.184L156.136 218.668L159.04 211.684H160.348ZM164.795 213.328C165.435 213.328 165.975 213.488 166.415 213.808C166.863 214.128 167.175 214.556 167.351 215.092V213.412H168.443V220H167.351V218.32C167.175 218.856 166.863 219.284 166.415 219.604C165.975 219.924 165.435 220.084 164.795 220.084C164.211 220.084 163.691 219.948 163.235 219.676C162.779 219.404 162.419 219.016 162.155 218.512C161.899 218 161.771 217.4 161.771 216.712C161.771 216.024 161.899 215.424 162.155 214.912C162.419 214.4 162.779 214.008 163.235 213.736C163.691 213.464 164.211 213.328 164.795 213.328ZM165.107 214.3C164.435 214.3 163.895 214.516 163.487 214.948C163.087 215.372 162.887 215.96 162.887 216.712C162.887 217.464 163.087 218.056 163.487 218.488C163.895 218.912 164.435 219.124 165.107 219.124C165.539 219.124 165.923 219.024 166.259 218.824C166.603 218.624 166.871 218.344 167.063 217.984C167.255 217.616 167.351 217.192 167.351 216.712C167.351 216.232 167.255 215.808 167.063 215.44C166.871 215.072 166.603 214.792 166.259 214.6C165.923 214.4 165.539 214.3 165.107 214.3ZM171.273 214.744C171.489 214.288 171.805 213.936 172.221 213.688C172.637 213.432 173.133 213.304 173.709 213.304V214.492H173.373C172.757 214.492 172.253 214.652 171.861 214.972C171.469 215.284 171.273 215.804 171.273 216.532V220H170.181V213.412H171.273V214.744Z" fill="#828383"/>
<path d="M222.832 218.044H219.112L218.404 220H217.228L220.36 211.696H221.596L224.716 220H223.54L222.832 218.044ZM222.52 217.192L220.972 212.92L219.424 217.192H222.52ZM229.457 213.328C230.041 213.328 230.561 213.464 231.017 213.736C231.473 214.008 231.829 214.4 232.085 214.912C232.349 215.424 232.481 216.024 232.481 216.712C232.481 217.4 232.349 218 232.085 218.512C231.829 219.016 231.473 219.404 231.017 219.676C230.561 219.948 230.041 220.084 229.457 220.084C228.817 220.084 228.273 219.924 227.825 219.604C227.385 219.276 227.081 218.848 226.913 218.32V223.12H225.821V213.412H226.913V215.092C227.081 214.564 227.385 214.14 227.825 213.82C228.273 213.492 228.817 213.328 229.457 213.328ZM229.145 214.3C228.721 214.3 228.337 214.4 227.993 214.6C227.649 214.792 227.381 215.072 227.189 215.44C226.997 215.808 226.901 216.232 226.901 216.712C226.901 217.192 226.997 217.616 227.189 217.984C227.381 218.344 227.649 218.624 227.993 218.824C228.337 219.024 228.721 219.124 229.145 219.124C229.825 219.124 230.365 218.912 230.765 218.488C231.173 218.056 231.377 217.464 231.377 216.712C231.377 215.96 231.173 215.372 230.765 214.948C230.365 214.516 229.825 214.3 229.145 214.3ZM234.999 214.744C235.215 214.288 235.531 213.936 235.947 213.688C236.363 213.432 236.859 213.304 237.435 213.304V214.492H237.099C236.483 214.492 235.979 214.652 235.587 214.972C235.195 215.284 234.999 215.804 234.999 216.532V220H233.907V213.412H234.999V214.744Z" fill="#828383"/>
<path d="M290.348 211.684V220H289.256V213.364L286.604 220H285.632L282.968 213.388V220H281.876V211.684H283.184L286.136 218.668L289.04 211.684H290.348ZM294.795 213.328C295.435 213.328 295.975 213.488 296.415 213.808C296.863 214.128 297.175 214.556 297.351 215.092V213.412H298.443V220H297.351V218.32C297.175 218.856 296.863 219.284 296.415 219.604C295.975 219.924 295.435 220.084 294.795 220.084C294.211 220.084 293.691 219.948 293.235 219.676C292.779 219.404 292.419 219.016 292.155 218.512C291.899 218 291.771 217.4 291.771 216.712C291.771 216.024 291.899 215.424 292.155 214.912C292.419 214.4 292.779 214.008 293.235 213.736C293.691 213.464 294.211 213.328 294.795 213.328ZM295.107 214.3C294.435 214.3 293.895 214.516 293.487 214.948C293.087 215.372 292.887 215.96 292.887 216.712C292.887 217.464 293.087 218.056 293.487 218.488C293.895 218.912 294.435 219.124 295.107 219.124C295.539 219.124 295.923 219.024 296.259 218.824C296.603 218.624 296.871 218.344 297.063 217.984C297.255 217.616 297.351 217.192 297.351 216.712C297.351 216.232 297.255 215.808 297.063 215.44C296.871 215.072 296.603 214.792 296.259 214.6C295.923 214.4 295.539 214.3 295.107 214.3ZM300.637 213.412L302.773 218.596L304.753 213.412H305.965L302.053 223.12H300.817L302.185 219.892L299.413 213.412H300.637Z" fill="#828383"/>
<path d="M354.992 211.54V217.828C354.992 218.524 354.792 219.076 354.392 219.484C354 219.884 353.448 220.084 352.736 220.084C351.968 220.084 351.364 219.86 350.924 219.412C350.492 218.956 350.276 218.32 350.276 217.504H351.368C351.368 217.992 351.476 218.38 351.692 218.668C351.908 218.948 352.24 219.088 352.688 219.088C353.112 219.088 353.42 218.968 353.612 218.728C353.804 218.488 353.9 218.188 353.9 217.828V211.54H354.992ZM362.545 213.412V220H361.453V218.452C361.285 218.988 360.985 219.4 360.553 219.688C360.129 219.968 359.633 220.108 359.065 220.108C358.305 220.108 357.689 219.864 357.217 219.376C356.745 218.88 356.509 218.172 356.509 217.252V213.412H357.601V217.144C357.601 217.8 357.769 218.308 358.105 218.668C358.441 219.02 358.897 219.196 359.473 219.196C360.073 219.196 360.553 219.004 360.913 218.62C361.273 218.228 361.453 217.66 361.453 216.916V213.412H362.545ZM367.762 213.304C368.53 213.304 369.15 213.552 369.622 214.048C370.094 214.536 370.33 215.244 370.33 216.172V220H369.238V216.268C369.238 215.612 369.07 215.108 368.734 214.756C368.398 214.404 367.942 214.228 367.366 214.228C366.766 214.228 366.286 214.424 365.926 214.816C365.566 215.2 365.386 215.764 365.386 216.508V220H364.294V213.412H365.386V214.972C365.554 214.436 365.85 214.024 366.274 213.736C366.706 213.448 367.202 213.304 367.762 213.304Z" fill="#828383"/>
<g filter="url(#filter0_d_6161_39930)">
<path d="M23 180L89.7806 150.681L119.288 114.217L197.329 74.5507L274.204 109.29L344.867 58.0435L373.21 68.3913L400 44" stroke="#292D30" stroke-width="3" stroke-linecap="round"/>
</g>
<path d="M88.1349 151.421L21 180.119V197H400V47L373.068 70.8746L344.575 60.746L273.537 110.907L196.253 76.9035L117.799 115.73L88.1349 151.421Z" fill="url(#paint0_linear_6161_39930)"/>
<path d="M25.9259 180C25.9259 181.116 25.0354 182 23.963 182C22.8905 182 22 181.116 22 180C22 178.884 22.8905 178 23.963 178C25.0354 178 25.9259 178.884 25.9259 180Z" fill="white" stroke="#252947" stroke-width="2"/>
<path d="M91.9259 150C91.9259 151.116 91.0354 152 89.963 152C88.8905 152 88 151.116 88 150C88 148.884 88.8905 148 89.963 148C91.0354 148 91.9259 148.884 91.9259 150Z" fill="white" stroke="#252947" stroke-width="2"/>
<path d="M120.926 115C120.926 116.116 120.035 117 118.963 117C117.891 117 117 116.116 117 115C117 113.884 117.891 113 118.963 113C120.035 113 120.926 113.884 120.926 115Z" fill="white" stroke="#252947" stroke-width="2"/>
<path d="M401.926 44C401.926 45.1163 401.035 46 399.963 46C398.891 46 398 45.1163 398 44C398 42.8837 398.891 42 399.963 42C401.035 42 401.926 42.8837 401.926 44Z" fill="white" stroke="#252947" stroke-width="2"/>
<path d="M198.926 75C198.926 76.1163 198.035 77 196.963 77C195.891 77 195 76.1163 195 75C195 73.8837 195.891 73 196.963 73C198.035 73 198.926 73.8837 198.926 75Z" fill="white" stroke="#252947" stroke-width="2"/>
<path d="M346.926 58C346.926 59.1163 346.035 60 344.963 60C343.891 60 343 59.1163 343 58C343 56.8837 343.891 56 344.963 56C346.035 56 346.926 56.8837 346.926 58Z" fill="white" stroke="#252947" stroke-width="2"/>
<path d="M275.926 109C275.926 110.116 275.035 111 273.963 111C272.891 111 272 110.116 272 109C272 107.884 272.891 107 273.963 107C275.035 107 275.926 107.884 275.926 109Z" fill="white" stroke="#252947" stroke-width="2"/>
<path d="M374.926 68C374.926 69.1163 374.035 70 372.963 70C371.891 70 371 69.1163 371 68C371 66.8837 371.891 66 372.963 66C374.035 66 374.926 66.8837 374.926 68Z" fill="white" stroke="#252947" stroke-width="2"/>
<rect x="172" y="30" width="51" height="28" rx="14" fill="#252947"/>
<path d="M190.504 47.16C191.864 46.248 192.952 45.344 193.768 44.448C194.584 43.544 194.992 42.704 194.992 41.928C194.992 41.448 194.868 41.064 194.62 40.776C194.38 40.48 193.988 40.332 193.444 40.332C192.884 40.332 192.46 40.512 192.172 40.872C191.884 41.224 191.724 41.712 191.692 42.336H190.612C190.668 41.392 190.96 40.668 191.488 40.164C192.016 39.652 192.696 39.396 193.528 39.396C194.32 39.396 194.948 39.608 195.412 40.032C195.876 40.456 196.108 41.056 196.108 41.832C196.108 42.472 195.9 43.124 195.484 43.788C195.076 44.444 194.56 45.056 193.936 45.624C193.32 46.184 192.684 46.66 192.028 47.052H196.324V47.952H190.504V47.16ZM197.493 43.716C197.493 45.076 197.717 46.136 198.165 46.896C198.613 47.656 199.389 48.036 200.493 48.036C201.597 48.036 202.373 47.656 202.821 46.896C203.277 46.136 203.505 45.076 203.505 43.716C203.505 42.372 203.277 41.32 202.821 40.56C202.373 39.8 201.597 39.42 200.493 39.42C199.389 39.42 198.613 39.8 198.165 40.56C197.717 41.312 197.493 42.364 197.493 43.716ZM202.425 43.716C202.425 44.412 202.373 44.996 202.269 45.468C202.173 45.932 201.985 46.304 201.705 46.584C201.425 46.864 201.021 47.004 200.493 47.004C199.973 47.004 199.573 46.864 199.293 46.584C199.013 46.304 198.821 45.932 198.717 45.468C198.621 44.996 198.573 44.412 198.573 43.716C198.573 43.028 198.621 42.452 198.717 41.988C198.821 41.524 199.013 41.156 199.293 40.884C199.573 40.604 199.973 40.464 200.493 40.464C201.021 40.464 201.425 40.604 201.705 40.884C201.985 41.156 202.173 41.524 202.269 41.988C202.373 42.452 202.425 43.028 202.425 43.716Z" fill="white"/>
<path d="M198.408 65.0345C198.05 65.8087 196.95 65.8087 196.592 65.0345L192.959 57.1693C192.653 56.5067 193.137 55.75 193.867 55.75L201.133 55.75C201.863 55.75 202.347 56.5067 202.041 57.1693L198.408 65.0345Z" fill="#252947"/>
<defs>
<filter id="filter0_d_6161_39930" x="17.4996" y="42.5" width="388" height="147" filterUnits="userSpaceOnUse" color-interpolation-filters="sRGB">
<feFlood flood-opacity="0" result="BackgroundImageFix"/>
<feColorMatrix in="SourceAlpha" type="matrix" values="0 0 0 0 0 0 0 0 0 0 0 0 0 0 0 0 0 0 127 0" result="hardAlpha"/>
<feOffset dy="4"/>
<feGaussianBlur stdDeviation="2"/>
<feComposite in2="hardAlpha" operator="out"/>
<feColorMatrix type="matrix" values="0 0 0 0 0 0 0 0 0 0 0 0 0 0 0 0 0 0 0.25 0"/>
<feBlend mode="normal" in2="BackgroundImageFix" result="effect1_dropShadow_6161_39930"/>
<feBlend mode="normal" in="SourceGraphic" in2="effect1_dropShadow_6161_39930" result="shape"/>
</filter>
<linearGradient id="paint0_linear_6161_39930" x1="205.621" y1="81.2444" x2="207.41" y2="213.92" gradientUnits="userSpaceOnUse">
<stop stop-color="#E7E7E7" stop-opacity="0.29"/>
<stop offset="0.867743" stop-color="#383B3D" stop-opacity="0"/>
</linearGradient>
</defs>
</svg>
