<svg width="14" height="22" viewBox="0 0 14 22" fill="none" xmlns="http://www.w3.org/2000/svg">
<path d="M13.5 11.6504V15.3504C13.5 18.4704 10.59 21.0004 7 21.0004C3.41 21.0004 0.5 18.4704 0.5 15.3504V11.6504C0.5 14.7704 3.41 17.0004 7 17.0004C10.59 17.0004 13.5 14.7704 13.5 11.6504Z" stroke="#6882A0" stroke-linecap="round" stroke-linejoin="round"/>
<path d="M13.5 6.65C13.5 7.56 13.25 8.4 12.81 9.12C11.74 10.88 9.54 12 7 12C4.46 12 2.26 10.88 1.19 9.12C0.750002 8.4 0.5 7.56 0.5 6.65C0.5 5.09 1.22999 3.68 2.39999 2.66C3.57999 1.63 5.2 1 7 1C8.8 1 10.42 1.63 11.6 2.65C12.77 3.68 13.5 5.09 13.5 6.65Z" stroke="#252947" stroke-linecap="round" stroke-linejoin="round"/>
<path d="M13.5 6.65V11.65C13.5 14.77 10.59 17 7 17C3.41 17 0.5 14.77 0.5 11.65V6.65C0.5 3.53 3.41 1 7 1C8.8 1 10.42 1.63 11.6 2.65C12.77 3.68 13.5 5.09 13.5 6.65Z" stroke="#252947" stroke-linecap="round" stroke-linejoin="round"/>
</svg>
