<svg width="18" height="18" viewBox="0 0 18 18" fill="none" xmlns="http://www.w3.org/2000/svg">
<path d="M9.75 12C9.75 12.4142 9.41421 12.75 9 12.75C8.58579 12.75 8.25 12.4142 8.25 12C8.25 11.5858 8.58579 11.25 9 11.25C9.41421 11.25 9.75 11.5858 9.75 12Z" fill="#383838"/>
<path d="M9.5625 5.25C9.5625 4.93934 9.31066 4.6875 9 4.6875C8.68934 4.6875 8.4375 4.93934 8.4375 5.25V9.75C8.4375 10.0607 8.68934 10.3125 9 10.3125C9.31066 10.3125 9.5625 10.0607 9.5625 9.75V5.25Z" fill="#383838"/>
<path fill-rule="evenodd" clip-rule="evenodd" d="M9 0.9375C4.5472 0.9375 0.9375 4.5472 0.9375 9C0.9375 13.4528 4.5472 17.0625 9 17.0625C13.4528 17.0625 17.0625 13.4528 17.0625 9C17.0625 4.5472 13.4528 0.9375 9 0.9375ZM2.0625 9C2.0625 5.16852 5.16852 2.0625 9 2.0625C12.8315 2.0625 15.9375 5.16852 15.9375 9C15.9375 12.8315 12.8315 15.9375 9 15.9375C5.16852 15.9375 2.0625 12.8315 2.0625 9Z" fill="#383838"/>
<path d="M9.75 12C9.75 12.4142 9.41421 12.75 9 12.75C8.58579 12.75 8.25 12.4142 8.25 12C8.25 11.5858 8.58579 11.25 9 11.25C9.41421 11.25 9.75 11.5858 9.75 12Z" stroke="#252947" stroke-width="0.1"/>
<path d="M9.5625 5.25C9.5625 4.93934 9.31066 4.6875 9 4.6875C8.68934 4.6875 8.4375 4.93934 8.4375 5.25V9.75C8.4375 10.0607 8.68934 10.3125 9 10.3125C9.31066 10.3125 9.5625 10.0607 9.5625 9.75V5.25Z" stroke="#252947" stroke-width="0.1"/>
<path fill-rule="evenodd" clip-rule="evenodd" d="M9 0.9375C4.5472 0.9375 0.9375 4.5472 0.9375 9C0.9375 13.4528 4.5472 17.0625 9 17.0625C13.4528 17.0625 17.0625 13.4528 17.0625 9C17.0625 4.5472 13.4528 0.9375 9 0.9375ZM2.0625 9C2.0625 5.16852 5.16852 2.0625 9 2.0625C12.8315 2.0625 15.9375 5.16852 15.9375 9C15.9375 12.8315 12.8315 15.9375 9 15.9375C5.16852 15.9375 2.0625 12.8315 2.0625 9Z" stroke="#252947" stroke-width="0.1"/>
</svg>
