<svg width="28" height="28" viewBox="0 0 28 28" fill="none" xmlns="http://www.w3.org/2000/svg">
<path d="M3.90831 2.3335H14.2917C15.155 2.3335 15.8666 3.04517 15.8666 3.9085V5.63515C15.8666 6.26515 15.47 7.04683 15.085 7.4435L11.7017 10.4302C11.235 10.8268 10.92 11.6085 10.92 12.2385V15.6218C10.92 16.0885 10.605 16.7185 10.2083 16.9635L9.11167 17.6752C8.08501 18.3052 6.67331 17.5935 6.67331 16.3335V12.1685C6.67331 11.6202 6.35833 10.9085 6.04333 10.5118L3.05667 7.36183C2.66 6.96516 2.34502 6.26515 2.34502 5.78682V3.9785C2.33335 3.04517 3.04498 2.3335 3.90831 2.3335Z" stroke="#C2C2C2" stroke-width="1.5" stroke-miterlimit="10" stroke-linecap="round" stroke-linejoin="round"/>
<path d="M2.33334 14V17.5C2.33334 23.3333 4.66668 25.6666 10.5 25.6666H17.5C23.3333 25.6666 25.6667 23.3333 25.6667 17.5V10.5C25.6667 6.85996 24.7566 4.57329 22.645 3.38329C22.05 3.04495 20.86 2.78828 19.775 2.61328" stroke="white" stroke-width="1.5" stroke-linecap="round" stroke-linejoin="round"/>
<path d="M15.1667 15.1665H21" stroke="#C2C2C2" stroke-width="1.5" stroke-linecap="round" stroke-linejoin="round"/>
<path d="M12.8333 19.8335H21" stroke="#C2C2C2" stroke-width="1.5" stroke-linecap="round" stroke-linejoin="round"/>
</svg>
