<svg width="47" height="47" viewBox="0 0 47 47" fill="none" xmlns="http://www.w3.org/2000/svg">
<circle cx="23.5" cy="23.5" r="23.5" fill="#252947"/>
<path d="M22.3749 33.3585L22.102 32.6599L22.3749 33.3585ZM16.9664 34.3971L16.5914 35.0466H16.5914L16.9664 34.3971ZM15.1616 29.1939L14.4201 29.3068L15.1616 29.1939ZM15.8153 25.7242L16.4648 26.0992L15.8153 25.7242ZM15.0364 27.3739L14.2994 27.235H14.2994L15.0364 27.3739ZM25.0529 31.0575L25.7024 31.4325L25.0529 31.0575ZM24.0137 32.5569L24.5024 33.1257L24.0137 32.5569ZM20.8799 16.9521L20.2303 16.5771L20.8799 16.9521ZM29.468 21.9104L24.4034 30.6825L25.7024 31.4325L30.767 22.6604L29.468 21.9104ZM16.4648 26.0992L21.5294 17.3271L20.2303 16.5771L15.1658 25.3492L16.4648 26.0992ZM22.102 32.6599C20.6473 33.2283 19.6319 33.623 18.8416 33.8076C18.0709 33.9877 17.6593 33.9311 17.3414 33.7476L16.5914 35.0466C17.3834 35.5039 18.2432 35.4878 19.1829 35.2683C20.1029 35.0533 21.2368 34.6084 22.6478 34.0571L22.102 32.6599ZM14.4201 29.3068C14.6482 30.8044 14.8298 32.0089 15.1036 32.9132C15.3834 33.8367 15.7994 34.5893 16.5914 35.0466L17.3414 33.7476C17.0234 33.564 16.7687 33.2358 16.5393 32.4784C16.304 31.7017 16.1382 30.6249 15.903 29.081L14.4201 29.3068ZM15.1658 25.3492C14.7281 26.1072 14.4126 26.6342 14.2994 27.235L15.7734 27.5127C15.8284 27.221 15.976 26.9457 16.4648 26.0992L15.1658 25.3492ZM15.903 29.081C15.7558 28.1146 15.7185 27.8045 15.7734 27.5127L14.2994 27.235C14.1862 27.8358 14.2883 28.4415 14.4201 29.3068L15.903 29.081ZM24.4034 30.6825C23.9146 31.5291 23.7501 31.7945 23.5249 31.988L24.5024 33.1257C24.9661 32.7273 25.2648 32.1905 25.7024 31.4325L24.4034 30.6825ZM22.6478 34.0571C23.4631 33.7386 24.0387 33.5242 24.5024 33.1257L23.5249 31.988C23.2997 32.1815 23.0125 32.3042 22.102 32.6599L22.6478 34.0571ZM27.7903 15.6495C28.8974 16.2886 29.6615 16.7316 30.1924 17.1413C30.706 17.5376 30.9093 17.8352 30.9928 18.1466L32.4416 17.7584C32.2392 17.0028 31.7553 16.4527 31.1088 15.9538C30.4795 15.4682 29.6106 14.9684 28.5403 14.3504L27.7903 15.6495ZM30.767 22.6604C31.3849 21.5901 31.8875 20.7228 32.1896 19.9877C32.5001 19.2323 32.6441 18.5139 32.4416 17.7584L30.9928 18.1466C31.0762 18.458 31.0489 18.8174 30.8023 19.4174C30.5473 20.0377 30.1071 20.8034 29.468 21.9104L30.767 22.6604ZM28.5403 14.3504C27.47 13.7325 26.6028 13.2299 25.8676 12.9278C25.1123 12.6173 24.3939 12.4733 23.6383 12.6758L24.0265 14.1246C24.3379 14.0412 24.6973 14.0685 25.2974 14.3152C25.9176 14.5701 26.6833 15.0103 27.7903 15.6495L28.5403 14.3504ZM21.5294 17.3271C22.1685 16.22 22.6115 15.4559 23.0212 14.925C23.4176 14.4114 23.7151 14.2081 24.0265 14.1246L23.6383 12.6758C22.8828 12.8782 22.3326 13.3621 21.8337 14.0086C21.3481 14.6379 20.8483 15.5068 20.2303 16.5771L21.5294 17.3271ZM30.4925 21.6359L21.2549 16.3025L20.5049 17.6016L29.7425 22.9349L30.4925 21.6359Z" fill="white"/>
</svg>
