<svg width="170" height="30" viewBox="0 0 170 30" fill="none" xmlns="http://www.w3.org/2000/svg">
<path fill-rule="evenodd" clip-rule="evenodd" d="M27.7969 0.09419C28.6843 0.347546 29.3936 1.02501 29.762 1.99108L29.8904 2.32705L29.9071 9.48548C29.9184 15.7307 29.9125 16.7442 29.8343 17.4392C29.3208 22.0168 26.8589 25.7169 22.7733 28.0323C20.8422 29.1284 18.2465 29.8587 15.8575 29.9766C12.2795 30.1594 8.93027 29.2694 6.08916 27.3841C4.38676 26.2528 2.76208 24.5327 1.81324 22.8534C1.12658 21.634 0.546155 20.0962 0.289393 18.8058L0.177734 18.2638H1.77979H3.38184L3.53827 18.8058C4.45366 22.0697 6.91553 24.6269 10.3203 25.87C11.9057 26.4533 13.1334 26.6537 14.9868 26.6537C16.8122 26.6477 17.9844 26.4533 19.553 25.8876C23.3154 24.5327 25.9165 21.569 26.5918 17.881C26.765 16.9441 26.7817 16.249 26.7871 9.82144L26.7925 3.29967H17.4704H8.1482V1.64958V0L17.8161 0.00604428C26.1334 0.00604428 27.5343 0.0176291 27.7969 0.09419Z" fill="#252947"/>
<path fill-rule="evenodd" clip-rule="evenodd" d="M6.19575 1.64958V3.29917H4.66059H3.12542V9.75042V16.2017H1.56271H0V9.49707C0 4.96638 0.016724 2.67459 0.0614853 2.43886C0.256763 1.28995 1.21153 0.270985 2.28334 0.058428C2.44468 0.0236734 3.39352 0 4.38712 0H6.19575V1.64958Z" fill="#6882A0"/>
<path d="M39.2413 14.4608H47.437C48.2125 14.4608 48.894 14.2797 49.4815 13.9177C50.069 13.5556 50.5214 13.0416 50.8386 12.3759C51.1676 11.7101 51.3321 10.9451 51.3321 10.0807C51.3321 9.20471 51.1676 8.43382 50.8386 7.76806C50.5214 7.10229 50.069 6.58836 49.4815 6.22628C48.894 5.85251 48.2125 5.66563 47.437 5.66563H39.2413V2.26671H47.3136C48.8411 2.26671 50.1865 2.59375 51.3498 3.24784C52.513 3.89025 53.4119 4.8013 54.0464 5.98099C54.6927 7.16069 55.0158 8.52726 55.0158 10.0807C55.0158 11.6342 54.6927 13.0008 54.0464 14.1805C53.4119 15.3485 52.513 16.2537 51.3498 16.8961C50.1865 17.5385 48.8411 17.8597 47.3136 17.8597H39.2413V14.4608ZM37.3906 2.26671H40.9862V27.7411H37.3906V2.26671Z" fill="#252947"/>
<path d="M68.0056 28.0039C66.2195 28.0039 64.645 27.6185 63.282 26.8476C61.919 26.065 60.8615 24.9671 60.1095 23.5538C59.3692 22.1288 58.9991 20.4819 58.9991 18.6131V11.3947C58.9991 9.52592 59.3692 7.88486 60.1095 6.47156C60.8615 5.04658 61.919 3.94865 63.282 3.17776C64.645 2.39519 66.2195 2.00391 68.0056 2.00391C69.7916 2.00391 71.3661 2.39519 72.7291 3.17776C74.0921 3.94865 75.1438 5.04658 75.884 6.47156C76.636 7.88486 77.012 9.52592 77.012 11.3947V18.6131C77.012 20.4819 76.636 22.1288 75.884 23.5538C75.1438 24.9671 74.0921 26.065 72.7291 26.8476C71.3661 27.6185 69.7916 28.0039 68.0056 28.0039ZM68.0056 24.4823C69.0631 24.4823 69.9913 24.2487 70.7903 23.7815C71.6011 23.3026 72.2238 22.631 72.6586 21.7667C73.1051 20.8907 73.3284 19.8804 73.3284 18.7357V11.2721C73.3284 10.1274 73.1051 9.12295 72.6586 8.25862C72.2238 7.38261 71.6011 6.711 70.7903 6.2438C69.9913 5.76491 69.0631 5.52547 68.0056 5.52547C66.948 5.52547 66.0139 5.76491 65.2032 6.2438C64.4041 6.711 63.7814 7.38261 63.3349 8.25862C62.9001 9.12295 62.6828 10.1274 62.6828 11.2721V18.7357C62.6828 19.8804 62.9001 20.8907 63.3349 21.7667C63.7814 22.631 64.4041 23.3026 65.2032 23.7815C66.0139 24.2487 66.948 24.4823 68.0056 24.4823Z" fill="#252947"/>
<path d="M91.2179 28.0039C89.4436 28.0039 87.8809 27.6126 86.5296 26.83C85.1901 26.0475 84.1502 24.9379 83.41 23.5012C82.6697 22.0645 82.2996 20.4001 82.2996 18.5079V11.5174C82.2996 9.6252 82.6697 7.96078 83.41 6.52412C84.1502 5.08746 85.1901 3.97785 86.5296 3.19528C87.8809 2.40103 89.4436 2.00391 91.2179 2.00391C92.6867 2.00391 94.0379 2.31927 95.2717 2.95C96.5055 3.56905 97.5336 4.4509 98.3561 5.59555C99.1904 6.7402 99.7544 8.0659 100.048 9.57264H96.3645C96.1412 8.77839 95.7652 8.07174 95.2365 7.45269C94.7194 6.82196 94.1084 6.33724 93.4034 5.99851C92.6984 5.65979 91.9699 5.49043 91.2179 5.49043C90.1722 5.49043 89.2556 5.74155 88.4684 6.2438C87.6811 6.74604 87.0701 7.45269 86.6354 8.36374C86.2006 9.26311 85.9832 10.3143 85.9832 11.5174V18.5079C85.9832 19.6993 86.2006 20.7505 86.6354 21.6616C87.0701 22.5726 87.6811 23.2793 88.4684 23.7815C89.2556 24.2721 90.1722 24.5174 91.2179 24.5174C91.9817 24.5174 92.7102 24.3597 93.4034 24.0443C94.1084 23.729 94.7194 23.2618 95.2365 22.6427C95.7652 22.0237 96.1412 21.2878 96.3645 20.4352H100.048C99.7544 21.9419 99.1904 23.2676 98.3561 24.4123C97.5219 25.5569 96.4878 26.4446 95.2541 27.0753C94.0203 27.6944 92.6749 28.0039 91.2179 28.0039Z" fill="#252947"/>
<path d="M107.997 16.5632L119.312 2.26671H123.736L107.468 21.9244L107.997 16.5632ZM105.177 2.26671H108.773V27.7411H105.177V2.26671ZM112.262 14.1454L115.1 11.5349L124.812 27.7411H120.405L112.262 14.1454Z" fill="#252947"/>
<path d="M128.337 2.26671H131.932V27.7411H128.337V2.26671ZM130.081 24.3422H144.798V27.7411H130.081V24.3422ZM130.081 13.392H142.86V16.791H130.081V13.392ZM130.081 2.26671H144.798V5.66563H130.081V2.26671Z" fill="#252947"/>
<path d="M153.629 4.35161H157.224V27.7411H153.629V4.35161ZM146.385 2.26671H164.468V5.66563H146.385V2.26671Z" fill="#252947"/>
<path d="M166.404 24.1641H170V27.7382H166.404V24.1641Z" fill="#6882A0"/>
</svg>
