<svg width="22" height="22" viewBox="0 0 22 22" fill="none" xmlns="http://www.w3.org/2000/svg">
<path d="M10 1H8C3 1 1 3 1 8V14C1 19 3 21 8 21H14C19 21 21 19 21 14V12" stroke="#101010" stroke-linecap="round" stroke-linejoin="round"/>
<path d="M15.0399 2.01928L7.15988 9.89928C6.85988 10.1993 6.55988 10.7893 6.49988 11.2193L6.06988 14.2293C5.90988 15.3193 6.67988 16.0793 7.76988 15.9293L10.7799 15.4993C11.1999 15.4393 11.7899 15.1393 12.0999 14.8393L19.9799 6.95928C21.3399 5.59928 21.9799 4.01928 19.9799 2.01928C17.9799 0.0192761 16.3999 0.659276 15.0399 2.01928Z" stroke="#6882A0" stroke-miterlimit="10" stroke-linecap="round" stroke-linejoin="round"/>
<path d="M13.9102 3.14844C14.5802 5.53844 16.4502 7.40844 18.8502 8.08844" stroke="#6882A0" stroke-miterlimit="10" stroke-linecap="round" stroke-linejoin="round"/>
</svg>
