<svg width="66" height="59" viewBox="0 0 66 59" fill="none" xmlns="http://www.w3.org/2000/svg">
<path d="M54.0641 41.3082H49.8514C49.4638 41.3082 49.1493 40.9892 49.1493 40.5959C49.1493 40.2027 49.4637 39.8837 49.8514 39.8837H54.0641C59.8712 39.8837 64.596 35.0908 64.596 29.2C64.596 23.3093 59.8712 18.5164 54.0641 18.5164H53.9628C53.7592 18.5164 53.5656 18.4269 53.4322 18.2707C53.2988 18.1145 53.2386 17.9074 53.2677 17.7029C53.3304 17.2593 53.362 16.8136 53.362 16.3797C53.362 11.2745 49.267 7.12049 44.2343 7.12049C42.2764 7.12049 40.4092 7.74115 38.8344 8.91583C38.4884 9.17377 37.9969 9.0593 37.7968 8.67316C33.3368 0.0581093 21.6878 -1.0988 15.6484 6.39554C13.1042 9.55279 12.1046 13.6599 12.9056 17.6628C12.9939 18.1049 12.6604 18.517 12.2175 18.517H11.9362C6.12916 18.517 1.40432 23.3099 1.40432 29.2006C1.40432 35.0913 6.12916 39.8842 11.9362 39.8842H16.1489C16.5366 39.8842 16.851 40.2032 16.851 40.5965C16.851 40.9897 16.5366 41.3087 16.1489 41.3087H11.9362C5.35472 41.3087 0 35.8769 0 29.2005C0 22.7115 5.05827 17.3982 11.385 17.1051C10.7907 12.9522 11.9272 8.76318 14.5611 5.49405C21.0272 -2.53036 33.4189 -1.63093 38.6571 7.31687C40.3282 6.2541 42.2405 5.69657 44.2341 5.69657C50.3315 5.69657 55.1632 10.9611 54.7404 17.1118C61.0089 17.4684 66 22.7537 66 29.2C66 35.8769 60.6453 41.3082 54.0638 41.3082L54.0641 41.3082Z" fill="#8EB6DB"/>
<path d="M15.1025 40.193C15.1025 50.1461 23.0856 58.2493 32.9059 58.2493C42.7263 58.2493 50.7092 50.146 50.7092 40.193C50.7092 30.2398 42.7263 22.1367 32.9059 22.1367C23.0855 22.1367 15.1025 30.24 15.1025 40.193ZM17.0071 40.193C17.0071 31.2951 24.1429 24.0615 32.9059 24.0615C41.6687 24.0615 48.8046 31.295 48.8046 40.193C48.8046 49.0909 41.6687 56.3245 32.9059 56.3245C24.143 56.3245 17.0071 49.091 17.0071 40.193Z" fill="#8EB6DB" stroke="#F9FFF9" stroke-width="0.5"/>
<path d="M33.2269 47.8818C32.9431 47.8818 32.7129 47.6482 32.7129 47.3603V33.8027C32.7129 33.5148 32.9431 33.2812 33.2269 33.2812C33.5108 33.2812 33.741 33.5148 33.741 33.8027V47.3603C33.741 47.6486 33.5108 47.8818 33.2269 47.8818Z" fill="#8EB6DB"/>
<path d="M37.3392 38.4957C37.2078 38.4957 37.076 38.4447 36.9758 38.343L33.227 34.5402L29.4782 38.343C29.2777 38.5467 28.9521 38.5467 28.7512 38.343C28.5504 38.1393 28.5504 37.8093 28.7512 37.6056L32.8635 33.434C33.0639 33.2303 33.3896 33.2303 33.5905 33.434L37.7027 37.6056C37.9035 37.8093 37.9035 38.1393 37.7027 38.343C37.6025 38.4451 37.4706 38.4957 37.3392 38.4957H37.3392Z" fill="#8EB6DB"/>
</svg>
