<svg width="24" height="24" viewBox="0 0 24 24" fill="none" xmlns="http://www.w3.org/2000/svg">
<path d="M12.4997 22.0003H4.07973C2.91973 22.0003 1.96973 21.0703 1.96973 19.9303V5.09035C1.96973 2.47035 3.91973 1.28035 6.30973 2.45035L10.7497 4.63035C11.7097 5.10035 12.4997 6.35035 12.4997 7.41035V22.0003Z" stroke="white" stroke-width="1.5" stroke-linecap="round" stroke-linejoin="round"/>
<path d="M21.9698 16.0599V19.8399C21.9698 21.9999 20.9698 22.9999 18.8098 22.9999H12.4998V11.4199L12.9698 11.5199L17.4698 12.5299L19.4998 12.9799C20.8198 13.2699 21.8998 13.9499 21.9598 15.8699C21.9698 15.9299 21.9698 15.9899 21.9698 16.0599Z" stroke="white" stroke-width="1.5" stroke-linecap="round" stroke-linejoin="round"/>
<path d="M5.49976 9H8.96976" stroke="white" stroke-width="1.5" stroke-linecap="round" stroke-linejoin="round"/>
<path d="M17.4697 12.5305V15.7505C17.4697 16.9905 16.4597 18.0005 15.2197 18.0005C13.9797 18.0005 12.9697 16.9905 12.9697 15.7505V11.5205L17.4697 12.5305Z" stroke="white" stroke-width="1.5" stroke-linecap="round" stroke-linejoin="round"/>
<path d="M21.9597 15.8703C21.8997 17.0503 20.9197 18.0003 19.7197 18.0003C18.4797 18.0003 17.4697 16.9903 17.4697 15.7503V12.5303L19.4997 12.9803C20.8197 13.2703 21.8997 13.9503 21.9597 15.8703Z" stroke="white" stroke-width="1.5" stroke-linecap="round" stroke-linejoin="round"/>
</svg>
