<svg width="46" height="50" viewBox="0 0 46 50" fill="none" xmlns="http://www.w3.org/2000/svg">
<path fill-rule="evenodd" clip-rule="evenodd" d="M38.4673 0.116171C39.6057 0.428651 40.5157 1.26421 40.9883 2.45573L41.153 2.8701L41.1745 11.6991C41.189 19.4017 41.1814 20.6517 41.0811 21.509C40.4223 27.1547 37.2639 31.7183 32.0224 34.5741C29.5449 35.9259 26.215 36.8267 23.15 36.9721C18.5598 37.1976 14.263 36.0999 10.618 33.7746C8.434 32.3793 6.34969 30.2578 5.1324 28.1866C4.25146 26.6826 3.50683 24.786 3.17743 23.1944L3.03418 22.5259H5.08948H7.14478L7.34546 23.1944C8.51983 27.22 11.6782 30.374 16.0463 31.9072C18.0801 32.6265 19.6552 32.8738 22.033 32.8738C24.3748 32.8663 25.8786 32.6266 27.891 31.9289C32.7179 30.2578 36.0548 26.6025 36.9212 22.0538C37.1434 20.8983 37.1648 20.041 37.1718 12.1134L37.1787 4.0697H25.2192H13.2596V2.03454V0L25.6628 0.0074548C36.3331 0.0074548 38.1303 0.0217432 38.4673 0.116171V0.116171Z" fill="white"/>
<path fill-rule="evenodd" clip-rule="evenodd" d="M10.7553 2.03454V4.06908H8.78578H6.8163V12.0258V19.9826H4.81147H2.80664V11.7134C2.80664 6.12536 2.8281 3.29875 2.88552 3.00801C3.13605 1.59098 4.36093 0.334223 5.73597 0.072063C5.94296 0.029198 7.16024 0 8.43495 0H10.7553V2.03454Z" fill="white"/>
<path d="M0.641955 45.3476H3.4849C3.75391 45.3476 3.99031 45.2854 4.1941 45.161C4.3979 45.0366 4.55482 44.8601 4.66487 44.6314C4.779 44.4027 4.83606 44.1398 4.83606 43.8429C4.83606 43.542 4.779 43.2771 4.66487 43.0484C4.55482 42.8197 4.3979 42.6432 4.1941 42.5188C3.99031 42.3904 3.75391 42.3262 3.4849 42.3262H0.641955V41.1585H3.4421C3.97197 41.1585 4.43866 41.2709 4.84217 41.4956C5.24569 41.7163 5.55749 42.0292 5.77759 42.4345C6.00177 42.8398 6.11386 43.3092 6.11386 43.8429C6.11386 44.3766 6.00177 44.846 5.77759 45.2513C5.55749 45.6526 5.24569 45.9635 4.84217 46.1842C4.43866 46.4049 3.97197 46.5153 3.4421 46.5153H0.641955V45.3476ZM0 41.1585H1.24723V49.9099H0V41.1585Z" fill="white"/>
<path d="M10.6198 50.0001C10.0002 50.0001 9.45406 49.8677 8.98125 49.6029C8.50845 49.3341 8.14162 48.9569 7.88076 48.4714C7.62398 47.9818 7.49559 47.4161 7.49559 46.7741V44.2943C7.49559 43.6523 7.62398 43.0885 7.88076 42.603C8.14162 42.1135 8.50845 41.7363 8.98125 41.4715C9.45406 41.2027 10.0002 41.0682 10.6198 41.0682C11.2393 41.0682 11.7855 41.2027 12.2583 41.4715C12.7311 41.7363 13.0959 42.1135 13.3527 42.603C13.6135 43.0885 13.7439 43.6523 13.7439 44.2943V46.7741C13.7439 47.4161 13.6135 47.9818 13.3527 48.4714C13.0959 48.9569 12.7311 49.3341 12.2583 49.6029C11.7855 49.8677 11.2393 50.0001 10.6198 50.0001ZM10.6198 48.7904C10.9866 48.7904 11.3086 48.7101 11.5858 48.5496C11.867 48.3851 12.083 48.1544 12.2338 47.8574C12.3887 47.5565 12.4661 47.2094 12.4661 46.8162V44.2522C12.4661 43.859 12.3887 43.5139 12.2338 43.2169C12.083 42.916 11.867 42.6853 11.5858 42.5248C11.3086 42.3603 10.9866 42.278 10.6198 42.278C10.2529 42.278 9.9289 42.3603 9.64766 42.5248C9.3705 42.6853 9.15448 42.916 8.99959 43.2169C8.84879 43.5139 8.77338 43.859 8.77338 44.2522V46.8162C8.77338 47.2094 8.84879 47.5565 8.99959 47.8574C9.15448 48.1544 9.3705 48.3851 9.64766 48.5496C9.9289 48.7101 10.2529 48.7904 10.6198 48.7904Z" fill="white"/>
<path d="M18.6717 50.0001C18.0563 50.0001 17.5142 49.8657 17.0454 49.5969C16.5808 49.328 16.2201 48.9468 15.9633 48.4533C15.7065 47.9598 15.5781 47.388 15.5781 46.7379V44.3364C15.5781 43.6864 15.7065 43.1146 15.9633 42.6211C16.2201 42.1275 16.5808 41.7464 17.0454 41.4775C17.5142 41.2047 18.0563 41.0682 18.6717 41.0682C19.1812 41.0682 19.6499 41.1766 20.0779 41.3933C20.5059 41.6059 20.8625 41.9089 21.1478 42.3021C21.4372 42.6953 21.6329 43.1507 21.7348 43.6684H20.457C20.3795 43.3955 20.2491 43.1527 20.0657 42.9401C19.8863 42.7234 19.6744 42.5569 19.4298 42.4405C19.1853 42.3242 18.9326 42.266 18.6717 42.266C18.309 42.266 17.991 42.3522 17.718 42.5248C17.4449 42.6973 17.2329 42.9401 17.0821 43.2531C16.9313 43.562 16.8559 43.9232 16.8559 44.3364V46.7379C16.8559 47.1472 16.9313 47.5084 17.0821 47.8213C17.2329 48.1343 17.4449 48.3771 17.718 48.5496C17.991 48.7181 18.309 48.8024 18.6717 48.8024C18.9366 48.8024 19.1894 48.7482 19.4298 48.6399C19.6744 48.5316 19.8863 48.3711 20.0657 48.1584C20.2491 47.9457 20.3795 47.6929 20.457 47.4H21.7348C21.6329 47.9176 21.4372 48.3731 21.1478 48.7663C20.8584 49.1595 20.4998 49.4645 20.0718 49.6811C19.6438 49.8938 19.1771 50.0001 18.6717 50.0001Z" fill="white"/>
<path d="M24.4921 46.0699L28.4172 41.1585H29.9518L24.3087 47.9116L24.4921 46.0699ZM23.5139 41.1585H24.7611V49.9099H23.5139V41.1585ZM25.9717 45.2393L26.956 44.3425L30.3247 49.9099H28.7963L25.9717 45.2393Z" fill="white"/>
<path d="M31.5475 41.1585H32.7947V49.9099H31.5475V41.1585ZM32.1528 48.7422H37.2578V49.9099H32.1528V48.7422ZM32.1528 44.9805H36.5853V46.1481H32.1528V44.9805ZM32.1528 41.1585H37.2578V42.3262H32.1528V41.1585Z" fill="white"/>
<path d="M40.3209 41.8748H41.5681V49.9099H40.3209V41.8748ZM37.8081 41.1585H44.0809V42.3262H37.8081V41.1585Z" fill="white"/>
<path d="M44.7529 48.6796H46.0002V49.9074H44.7529V48.6796Z" fill="white"/>
</svg>
