<svg width="22" height="20" viewBox="0 0 22 20" fill="none" xmlns="http://www.w3.org/2000/svg">
<path opacity="0.4" d="M12 7H6" stroke="white" stroke-width="1.5" stroke-linecap="round" stroke-linejoin="round"/>
<path d="M21.0002 8.96918V11.0292C21.0002 11.5792 20.5602 12.0292 20.0002 12.0492H18.0402C16.9602 12.0492 15.9702 11.2592 15.8802 10.1792C15.8202 9.5492 16.0602 8.95919 16.4802 8.54919C16.8502 8.16919 17.3602 7.94922 17.9202 7.94922H20.0002C20.5602 7.96922 21.0002 8.41918 21.0002 8.96918Z" stroke="white" stroke-width="1.5" stroke-linecap="round" stroke-linejoin="round"/>
<path d="M16.48 8.54999C16.06 8.95999 15.82 9.54999 15.88 10.18C15.97 11.26 16.96 12.05 18.04 12.05H20V13.5C20 16.5 18 18.5 15 18.5H6C3 18.5 1 16.5 1 13.5V6.5C1 3.78 2.64 1.88 5.19 1.56C5.45 1.52 5.72 1.5 6 1.5H15C15.26 1.5 15.51 1.50999 15.75 1.54999C18.33 1.84999 20 3.76 20 6.5V7.95001H17.92C17.36 7.95001 16.85 8.16999 16.48 8.54999Z" stroke="white" stroke-width="1.5" stroke-linecap="round" stroke-linejoin="round"/>
</svg>
